<svg width="24" height="24" viewBox="0 0 24 24" fill="none" xmlns="http://www.w3.org/2000/svg">
<path d="M10.9255 2.02615C11.4759 2.02617 12.0153 2.07403 12.5408 2.1619L10.9441 4.18729H10.9255C6.74803 4.18729 3.36117 7.57425 3.36108 11.7517C3.36108 15.9293 6.74797 19.3162 10.9255 19.3162C15.103 19.3161 18.489 15.9292 18.489 11.7517C18.489 11.3907 18.4627 11.0358 18.4138 10.6883L20.5886 10.6717C20.6278 11.0264 20.6511 11.3866 20.6511 11.7517C20.6511 14.048 19.8531 16.1573 18.5222 17.8211L22.4949 21.7937L22.5701 21.8758C22.9159 22.3002 22.8904 22.9266 22.4949 23.3221C22.0729 23.7435 21.3894 23.7436 20.9675 23.3221L16.9939 19.3484C15.3302 20.6792 13.2217 21.4773 10.9255 21.4773C5.55438 21.4773 1.19995 17.1229 1.19995 11.7517C1.20004 6.38066 5.55444 2.02615 10.9255 2.02615ZM14.7078 0.450958C14.8514 0.450983 14.9922 0.48608 15.1179 0.552521L15.238 0.628693L15.3445 0.724396C15.4097 0.793135 15.4636 0.871907 15.5037 0.957794L15.5535 1.09158L15.5564 1.1033L16.4822 4.69412C16.5083 4.79524 16.5607 4.88781 16.6345 4.9617C16.7084 5.03555 16.801 5.08888 16.9021 5.11502L20.4929 6.0408L20.5027 6.04276C20.6878 6.09385 20.8511 6.20448 20.9675 6.35721C21.0839 6.51008 21.1472 6.69731 21.1472 6.88943C21.1472 7.08151 21.0839 7.26884 20.9675 7.42166C20.8512 7.57429 20.6877 7.68505 20.5027 7.73611L20.4929 7.73807L16.9021 8.66385C16.801 8.69 16.7084 8.74236 16.6345 8.81619C16.5607 8.89006 16.5083 8.98265 16.4822 9.08377L15.5554 12.6746L15.5525 12.6863C15.5009 12.8707 15.3905 13.0334 15.238 13.1492C15.0854 13.265 14.8983 13.3279 14.7068 13.3279C14.5154 13.3278 14.329 13.2648 14.1765 13.1492C14.024 13.0334 13.9137 12.8707 13.8621 12.6863L13.8582 12.6746L12.9333 9.08377C12.9072 8.98265 12.8539 8.89007 12.78 8.81619C12.7062 8.74242 12.6135 8.68996 12.5125 8.66385L8.92163 7.73807C8.91713 7.73691 8.91243 7.73543 8.90796 7.73416C8.72425 7.68199 8.56218 7.57108 8.44702 7.41873C8.36065 7.3044 8.30391 7.17105 8.28101 7.03104L8.27026 6.88943L8.28101 6.74783C8.30386 6.60776 8.36066 6.47452 8.44702 6.36014L8.54175 6.25369C8.64443 6.15578 8.77013 6.08386 8.90796 6.04471L8.92163 6.0408L12.5125 5.11404C12.6135 5.08795 12.7061 5.03546 12.78 4.9617C12.854 4.8878 12.9072 4.79532 12.9333 4.69412L13.8591 1.1033L13.8621 1.09158C13.9137 0.90718 14.0249 0.744436 14.1775 0.628693L14.2976 0.552521C14.4234 0.486064 14.5641 0.45097 14.7078 0.450958ZM10.0251 9.23026C10.3483 9.23041 10.6101 9.49303 10.6101 9.81619C10.9333 9.81627 11.196 10.078 11.196 10.4012C11.196 10.7243 10.9333 10.986 10.6101 10.9861C10.6101 11.3093 10.3483 11.5719 10.0251 11.5721C9.7019 11.5721 9.43923 11.3094 9.43921 10.9861C9.11618 10.9859 8.85427 10.7242 8.85425 10.4012C8.85427 10.0781 9.11618 9.81645 9.43921 9.81619C9.43921 9.49293 9.70188 9.23026 10.0251 9.23026ZM14.0671 4.98709C13.9886 5.29072 13.83 5.56813 13.6082 5.78983C13.3864 6.01142 13.109 6.16948 12.8054 6.24783L10.3191 6.88846L12.8054 7.53006C13.1091 7.60848 13.3864 7.76727 13.6082 7.98904C13.8299 8.21088 13.9888 8.48807 14.0671 8.79178L14.7068 11.2771L15.3484 8.79178C15.4268 8.48793 15.5855 8.21093 15.8074 7.98904C16.0292 7.7672 16.3063 7.60843 16.6101 7.53006L19.0955 6.88846L16.6101 6.24881C16.3064 6.17046 16.0292 6.01156 15.8074 5.78983C15.5856 5.56802 15.4268 5.29081 15.3484 4.98709L14.7078 2.50174L14.0671 4.98709ZM19.3904 1.03592C19.7135 1.03613 19.9753 1.29872 19.9753 1.62186V2.20682H20.5603C20.8834 2.2069 21.1461 2.46868 21.1462 2.79178C21.1462 3.11497 20.8835 3.37763 20.5603 3.37772H19.9753V3.96268C19.9753 4.28579 19.7134 4.54743 19.3904 4.54764C19.0671 4.54764 18.8045 4.28592 18.8044 3.96268V3.37772H18.2195C17.8962 3.3777 17.6345 3.11501 17.6345 2.79178C17.6347 2.46864 17.8963 2.20683 18.2195 2.20682H18.8044V1.62186C18.8044 1.29859 19.0671 1.03592 19.3904 1.03592Z" fill="#3F3F3F"/>
</svg>
