<svg width="42" height="42" viewBox="0 0 42 42" fill="none" xmlns="http://www.w3.org/2000/svg">
<g filter="url(#filter0_dd_24739_36428)">
<path d="M5 17C5 8.16344 12.1634 1 21 1C29.8366 1 37 8.16344 37 17C37 25.8366 29.8366 33 21 33C12.1634 33 5 25.8366 5 17Z" fill="white"/>
<path d="M21 25C21 25 12.3333 20.3333 12.3333 14.8333C12.3333 13.6398 12.8074 12.4952 13.6513 11.6513C14.4952 10.8074 15.6398 10.3333 16.8333 10.3333C18.7158 10.3333 20.3283 11.3591 21 13C21.6716 11.3591 23.2841 10.3333 25.1666 10.3333C26.3601 10.3333 27.5047 10.8074 28.3486 11.6513C29.1925 12.4952 29.6666 13.6398 29.6666 14.8333C29.6666 20.3333 21 25 21 25Z" stroke="#343330" stroke-width="1.33333" stroke-linecap="round" stroke-linejoin="round"/>
</g>
<defs>
<filter id="filter0_dd_24739_36428" x="0" y="0" width="42" height="42" filterUnits="userSpaceOnUse" color-interpolation-filters="sRGB">
<feFlood flood-opacity="0" result="BackgroundImageFix"/>
<feColorMatrix in="SourceAlpha" type="matrix" values="0 0 0 0 0 0 0 0 0 0 0 0 0 0 0 0 0 0 127 0" result="hardAlpha"/>
<feMorphology radius="2" operator="erode" in="SourceAlpha" result="effect1_dropShadow_24739_36428"/>
<feOffset dy="2"/>
<feGaussianBlur stdDeviation="2"/>
<feColorMatrix type="matrix" values="0 0 0 0 0 0 0 0 0 0 0 0 0 0 0 0 0 0 0.1 0"/>
<feBlend mode="normal" in2="BackgroundImageFix" result="effect1_dropShadow_24739_36428"/>
<feColorMatrix in="SourceAlpha" type="matrix" values="0 0 0 0 0 0 0 0 0 0 0 0 0 0 0 0 0 0 127 0" result="hardAlpha"/>
<feMorphology radius="1" operator="erode" in="SourceAlpha" result="effect2_dropShadow_24739_36428"/>
<feOffset dy="4"/>
<feGaussianBlur stdDeviation="3"/>
<feColorMatrix type="matrix" values="0 0 0 0 0 0 0 0 0 0 0 0 0 0 0 0 0 0 0.1 0"/>
<feBlend mode="normal" in2="effect1_dropShadow_24739_36428" result="effect2_dropShadow_24739_36428"/>
<feBlend mode="normal" in="SourceGraphic" in2="effect2_dropShadow_24739_36428" result="shape"/>
</filter>
</defs>
</svg>
