<svg width="14" height="14" viewBox="0 0 14 14" fill="none" xmlns="http://www.w3.org/2000/svg">
<path d="M8.96875 3.9375C9.57281 3.9375 10.0625 3.44781 10.0625 2.84375C10.0625 2.23969 9.57281 1.75 8.96875 1.75C8.36469 1.75 7.875 2.23969 7.875 2.84375C7.875 3.44781 8.36469 3.9375 8.96875 3.9375Z" stroke="#EAEAEA" stroke-width="0.875" stroke-linecap="round" stroke-linejoin="round"/>
<path d="M10.9375 11.375C11.904 11.375 12.6875 10.5915 12.6875 9.625C12.6875 8.6585 11.904 7.875 10.9375 7.875C9.971 7.875 9.1875 8.6585 9.1875 9.625C9.1875 10.5915 9.971 11.375 10.9375 11.375Z" stroke="#EAEAEA" stroke-width="0.875" stroke-linecap="round" stroke-linejoin="round"/>
<path d="M3.0625 11.375C4.029 11.375 4.8125 10.5915 4.8125 9.625C4.8125 8.6585 4.029 7.875 3.0625 7.875C2.096 7.875 1.3125 8.6585 1.3125 9.625C1.3125 10.5915 2.096 11.375 3.0625 11.375Z" stroke="#EAEAEA" stroke-width="0.875" stroke-linecap="round" stroke-linejoin="round"/>
<path d="M10.5 6.125H8.3125L6.5625 4.375L4.8125 6.125L7 8.3125V10.9375" stroke="#EAEAEA" stroke-width="0.875" stroke-linecap="round" stroke-linejoin="round"/>
</svg>
