<svg width="14" height="14" viewBox="0 0 14 14" fill="none" xmlns="http://www.w3.org/2000/svg">
<path d="M5.25 11.0834C5.25 12.0499 4.4665 12.8334 3.5 12.8334C2.5335 12.8334 1.75 12.0499 1.75 11.0834C1.75 10.1169 2.5335 9.33335 3.5 9.33335C4.4665 9.33335 5.25 10.1169 5.25 11.0834ZM5.25 11.0834H10.2083C10.7498 11.0834 11.2691 10.8683 11.652 10.4854C12.0349 10.1025 12.25 9.58317 12.25 9.04169C12.25 8.5002 12.0349 7.9809 11.652 7.59801C11.2691 7.21512 10.7498 7.00002 10.2083 7.00002H3.79167C3.25018 7.00002 2.73088 6.78492 2.34799 6.40203C1.9651 6.01914 1.75 5.49984 1.75 4.95835C1.75 4.41687 1.9651 3.89756 2.34799 3.51468C2.73088 3.13179 3.25018 2.91669 3.79167 2.91669H8.75M8.75 2.91669C8.75 3.88319 9.5335 4.66669 10.5 4.66669C11.4665 4.66669 12.25 3.88319 12.25 2.91669C12.25 1.95019 11.4665 1.16669 10.5 1.16669C9.5335 1.16669 8.75 1.95019 8.75 2.91669Z" stroke="#EAEAEA" stroke-width="1.16667" stroke-linecap="round" stroke-linejoin="round"/>
</svg>
