<svg width="24" height="24" viewBox="0 0 24 24" fill="none" xmlns="http://www.w3.org/2000/svg">
<path d="M16.8218 5.1344C16.0887 4.29394 15.648 3.19805 15.648 2H14.7293C14.9659 3.3095 15.7454 4.43326 16.8218 5.1344Z" fill="white"/>
<path d="M8.32144 11.9051C6.73002 11.9051 5.43555 13.2007 5.43555 14.7934C5.43555 15.9033 6.06655 16.8691 6.9852 17.352C6.64187 16.8784 6.43772 16.298 6.43772 15.6664C6.43772 14.0737 7.73219 12.7781 9.32364 12.7781C9.62057 12.7781 9.9082 12.8291 10.1773 12.9127V9.40223C9.89891 9.36504 9.61592 9.3418 9.32364 9.3418C9.27258 9.3418 9.22618 9.34645 9.17514 9.34645V12.0397C8.9014 11.9561 8.61837 11.9051 8.32144 11.9051Z" fill="white"/>
<path d="M19.4245 6.67578V9.34584C17.6429 9.34584 15.9912 8.77471 14.6456 7.80881V14.7974C14.6456 18.2848 11.8108 21.1267 8.32172 21.1267C6.97621 21.1267 5.7235 20.6995 4.69812 19.9797C5.8534 21.2195 7.50049 21.9997 9.32392 21.9997C12.8083 21.9997 15.6478 19.1624 15.6478 15.6704V8.68181C16.9933 9.64771 18.645 10.2188 20.4267 10.2188V6.78263C20.0787 6.78263 19.7446 6.74544 19.4245 6.67578Z" fill="white"/>
<path d="M14.6456 14.7977V7.80911C15.9912 8.77501 17.6429 9.34614 19.4245 9.34614V6.67608C18.3945 6.45788 17.4899 5.90063 16.8218 5.1344C15.7454 4.43326 14.9704 3.3095 14.7245 2H12.2098L12.2051 15.7775C12.1495 17.3192 10.8782 18.5591 9.32393 18.5591C8.35884 18.5591 7.50977 18.0808 6.98085 17.3564C6.06219 16.8688 5.4312 15.9076 5.4312 14.7977C5.4312 13.205 6.72567 11.9094 8.31708 11.9094C8.61402 11.9094 8.90168 11.9605 9.17079 12.0441V9.35079C5.75598 9.42509 3 12.2298 3 15.6707C3 17.3331 3.64492 18.847 4.69812 19.98C5.7235 20.6998 6.97621 21.127 8.32172 21.127C11.8061 21.127 14.6456 18.2851 14.6456 14.7977Z" fill="white"/>
</svg>
