<svg width="14" height="14" viewBox="0 0 14 14" fill="none" xmlns="http://www.w3.org/2000/svg">
<path d="M5.83334 1.16669H8.16668M7.00001 8.16669V5.83335M2.33334 7.58336C2.47618 6.44934 3.03023 5.40718 3.89041 4.65452C4.75058 3.90187 5.85707 3.49106 7.00001 3.50002C7.75487 3.50082 8.49827 3.68473 9.16644 4.03597C9.83461 4.3872 10.4076 4.89528 10.8363 5.51662C11.2649 6.13796 11.5365 6.85401 11.6276 7.60335C11.7187 8.35269 11.6267 9.11295 11.3594 9.81892C11.0922 10.5249 10.6577 11.1555 10.0931 11.6566C9.52862 12.1578 8.85097 12.5145 8.1183 12.6962C7.38563 12.8778 6.61982 12.8791 5.88656 12.6998C5.15331 12.5205 4.47449 12.166 3.90834 11.6667L2.33334 10.2667M5.25001 9.91669H2.33334V12.8334" stroke="#EAEAEA" stroke-width="1.16667" stroke-linecap="round" stroke-linejoin="round"/>
</svg>
